name C:\Users\tom_v\My Drive\PostDoc\MusculoskeletalSpecialization\ResultsSprinting\Case_4\motion.mot
datacolumns 32
datarows 7
range 0.14091817 0.17473853
endheader 
time	pelvis_tilt	pelvis_list	pelvis_rotation	pelvis_tx	pelvis_ty	pelvis_tz	hip_flexion_r	hip_adduction_r	hip_rotation_r	knee_angle_r	ankle_angle_r	subtalar_angle_r	mtp_angle_r	hip_flexion_l	hip_adduction_l	hip_rotation_l	knee_angle_l	ankle_angle_l	subtalar_angle_l	mtp_angle_l	lumbar_extension	lumbar_bending	lumbar_rotation	arm_flex_r	arm_add_r	arm_rot_r	elbow_flex_r	arm_flex_l	arm_add_l	arm_rot_l	elbow_flex_l	
          0.14091817	        -12.72415633	         -0.10924062	          1.04918437	          0.46280414	          0.93719407	          0.00287828	         29.12192131	          4.50461939	          4.95249178	        -39.80399480	         22.05016062	         -3.22571011	          9.59407579	         32.47985753	         -0.92346186	         -3.84278867	        -58.82029020	         20.58506244	          4.62977134	          2.97507358	        -12.40880644	          1.55074279	          0.12390003	         26.35186249	         -3.66573006	         13.56383309	         14.54960418	          5.93222189	         -8.43162561	          9.36684342	         69.61018353	
          0.14655489	        -12.75373585	         -0.01760127	          1.07715883	          0.48108331	          0.93840062	          0.00298371	         27.64576072	          4.33017473	          4.88993893	        -39.18359176	         21.89028496	         -2.96472072	         10.64765450	         33.78017213	         -0.71170181	         -3.83099442	        -58.39285991	         21.24600123	          4.38750700	          2.76154510	        -12.45124664	          1.34680732	          0.28208640	         27.66556959	         -3.02936071	         13.52273360	         11.35448990	          4.40469873	         -9.00782440	          8.90998212	         73.84254720	
          0.15219162	        -12.78536569	          0.07724795	          1.10220997	          0.49943739	          0.93970909	          0.00307773	         26.14499844	          4.13494462	          4.79354829	        -38.49927302	         21.56048357	         -2.69365050	         11.75584462	         35.02925424	         -0.48930451	         -3.80196646	        -57.84646748	         21.79286875	          4.15970926	          2.56452525	        -12.48765168	          1.13026090	          0.44015144	         28.79643602	         -2.46819258	         13.38739421	          8.64361129	          2.92019331	         -9.54268686	          8.42661988	         77.90109239	
          0.15782835	        -12.81857937	          0.17452537	          1.12398514	          0.51787013	          0.94111034	          0.00316223	         24.63089610	          3.92094038	          4.66047844	        -37.76950528	         21.05463483	         -2.40977237	         12.91728302	         36.22393761	         -0.25872163	         -3.75637458	        -57.18480468	         22.23739276	          3.94706863	          2.38214052	        -12.51743726	          0.90200605	          0.59727002	         29.75202809	         -1.98211835	         13.18125190	          6.39467312	          1.48320780	        -10.03507962	          7.91992508	         81.77098248	
          0.16346508	        -12.85290871	          0.27307690	          1.14235953	          0.53638438	          0.94259186	          0.00323914	         23.11244989	          3.68954920	          4.48610999	        -37.00949767	         20.37392039	         -2.10661952	         14.12712309	         37.36158268	         -0.02296198	         -3.69481809	        -56.41217098	         22.59184288	          3.74957273	          2.21276302	        -12.54023033	          0.66340113	          0.75253446	         30.54312252	         -1.56700205	         12.92645707	          4.57330966	          0.09725374	        -10.48478756	          7.39306118	         85.44129657	
          0.16910180	        -12.88797982	          0.37200261	          1.15720847	          0.55498008	          0.94414027	          0.00331016	         21.59985119	          3.44317486	          4.26746735	        -36.23709763	         19.52492741	         -1.78326688	         15.37238133	         38.43953287	          0.21545571	         -3.61752837	        -55.53145746	         22.86872717	          3.56578047	          2.05506488	        -12.55638514	          0.41579869	          0.90523369	         31.18289987	         -1.21620988	         12.64236440	          3.13790319	         -1.23425726	        -10.89222650	          6.84929897	         88.90370440	
          0.17473853	        -12.92345036	          0.47082132	          1.16871269	          0.57365549	          0.94574082	          0.00337614	         20.10321343	          3.18522681	          4.00618854	        -35.46926856	         18.50628609	         -1.44482034	         16.64703691	         39.45572836	          0.45500645	         -3.52390474	        -54.54575763	         23.07960736	          3.39393901	          1.90810416	        -12.56664468	          0.16034561	          1.05469364	         31.68579011	         -0.92183352	         12.34505333	          2.04298803	         -2.50795901	        -11.25834475	          6.29210893	         92.15181284	
